<svg id="Layer_1" data-name="Layer 1" xmlns="http://www.w3.org/2000/svg" viewBox="0 0 255.89 200.95"><defs><style>.cls-1{fill:#f90;}</style></defs><title>aws-icon</title><path class="cls-1" d="M69.76,201.74,37.94,190.32V143.67l31.82,10.85v47.22" transform="translate(-0.05 -0.79)"/><path class="cls-1" d="M75.6,201.74l31.82-11.42V143.67L75.6,154.52v47.22" transform="translate(-0.05 -0.79)"/><path class="cls-1" d="M41.21,140.18l32.21-9.06,29.86,9.63L73.42,150.89,41.21,140.18" transform="translate(-0.05 -0.79)"/><path class="cls-1" d="M31.87,136.57.05,125.15V78.51L31.87,89.35v47.22" transform="translate(-0.05 -0.79)"/><path class="cls-1" d="M37.71,136.57l31.83-11.42V78.51L37.71,89.35v47.22" transform="translate(-0.05 -0.79)"/><path class="cls-1" d="M3.32,75,35.53,66l29.86,9.63L35.53,85.72,3.32,75" transform="translate(-0.05 -0.79)"/><path class="cls-1" d="M106.13,136.57,74.31,125.15V78.51l31.82,10.84v47.22" transform="translate(-0.05 -0.79)"/><path class="cls-1" d="M112,136.57l31.82-11.42V78.51L112,89.35v47.22" transform="translate(-0.05 -0.79)"/><path class="cls-1" d="M77.58,75,109.79,66l29.86,9.63L109.79,85.72,77.58,75" transform="translate(-0.05 -0.79)"/><path class="cls-1" d="M144,71.4,112.19,60V13.34L144,24.18V71.4" transform="translate(-0.05 -0.79)"/><path class="cls-1" d="M149.86,71.4,181.68,60V13.34L149.86,24.18V71.4" transform="translate(-0.05 -0.79)"/><path class="cls-1" d="M115.47,9.85,147.68.79l29.86,9.62L147.68,20.55,115.47,9.85" transform="translate(-0.05 -0.79)"/><path class="cls-1" d="M218.28,71.4,186.45,60V13.34l31.83,10.84V71.4" transform="translate(-0.05 -0.79)"/><path class="cls-1" d="M224.12,71.4,255.94,60V13.34L224.12,24.18V71.4" transform="translate(-0.05 -0.79)"/><path class="cls-1" d="M189.73,9.85,221.93.79l29.87,9.62L221.93,20.55l-32.2-10.7" transform="translate(-0.05 -0.79)"/></svg>