<svg id="Layer_1" data-name="Layer 1" xmlns="http://www.w3.org/2000/svg" viewBox="0 0 448 512"><defs><style>.cls-1{fill:#1f62ae;}.cls-2{fill:#fdfefe;}.cls-3{fill:#347dc5;}.cls-4{fill:#357dc5;}</style></defs><title>css-icon</title><path class="cls-1" d="M433,641h-5c-1.14-1.77-3.13-1.62-4.81-2.08q-84.46-23.13-168.95-46.1c-4.1-1.11-5.48-2.91-5.82-7-2-23.9-4.26-47.78-6.43-71.66q-4.22-46.53-8.43-93.07-4.26-46.77-8.55-93.55-4.22-46.53-8.39-93.06Q211.84,181.77,207,129H655q-3.69,41.05-7.39,82.11-4.27,47.28-8.62,94.55-4.2,46.27-8.38,92.56-4.29,47.28-8.62,94.55c-2.82,31-5.69,62-8.37,93.06-.35,4-1.7,5.88-5.82,7q-70.35,18.92-140.56,38.31C455.8,634.31,444.12,636.7,433,641Zm-2-239.84.19,79.3c-16.37-4.34-32.28-10.15-48.46-15.12-2.34-.72-2.29-2.57-2.59-4.32-1.36-8-2.89-16-3.89-24.12-.42-3.31-1.69-4-4.73-4-17,.13-34,.23-50.94-.06-4.37-.07-4.73,1.55-4.38,5.14,2.32,23.52,4.6,47,6.58,70.58.3,3.58,1.77,4.64,4.8,5.53,18.82,5.48,37.59,11.13,56.37,16.75Q407.47,538,431,545q0,27,0,54c0,6,.06,6,5.91,4.21Q481.46,590,526,576.78q23.94-7.11,47.89-14.24c2.39-.72,4.79-1.3,5.08-4.61.91-10.27,2-20.51,3-30.77,1.46-15.06,2.82-30.12,4.32-45.17s3.16-30.09,4.65-45.14c1.5-15.22,2.81-30.45,4.31-45.67,1.84-18.69,3.85-37.37,5.68-56.06,1.82-18.52,3.44-37.07,5.27-55.6,1.84-18.69,3.88-37.36,5.72-56s3.46-37.4,5.32-56.09c.62-6.3.79-6.35-5.75-6.35h-174c-6.52,0-6.54,0-6.54,6.84q0,28.49,0,57c-1.32,0-2.65.15-4,.15q-62.73,0-125.44-.06c-3.53,0-5,.48-4.55,4.54q3,27.3,5.44,54.67c.36,4,1.67,5,5.7,5,38.48-.19,77-.11,115.45-.11h5a7,7,0,0,1-3.17,2.1q-57,22-114,44c-2.48,1-4.72,1.45-4.31,5.34q2.87,27.07,5,54.21c.37,4.86,1.63,6.55,6.92,6.52C356.35,400.94,393.66,401.13,431,401.18Z" transform="translate(-207 -129.02)"/><path class="cls-2" d="M431,545Q407.47,538,383.92,530.9c-18.78-5.62-37.55-11.27-56.37-16.75-3-.89-4.5-1.95-4.8-5.53-2-23.55-4.26-47.06-6.58-70.58-.35-3.59,0-5.21,4.38-5.14,17,.29,34,.19,50.94.06,3,0,4.31.65,4.73,4,1,8.08,2.53,16.09,3.89,24.12.3,1.75.25,3.6,2.59,4.32,16.18,5,32.09,10.78,48.46,15.12q24-7.35,48-14.69c1.86-.57,2.5-1.79,2.66-3.68q2.4-28.8,5-57.6c.22-2.46-.18-3.57-3-3.54-17.62.16-35.23.16-52.85.21-37.31-.05-74.62-.24-111.93,0-5.29,0-6.55-1.66-6.92-6.52q-2.08-27.13-5-54.21c-.41-3.89,1.83-4.38,4.31-5.34q57-22,114-44a7,7,0,0,0,3.17-2.1h-5c-38.48,0-77-.08-115.45.11-4,0-5.34-1-5.7-5Q300,256.8,297,229.49c-.45-4.06,1-4.55,4.55-4.54q62.71.17,125.44.06c1.33,0,2.66-.1,4-.15l117,.16c4.67,0,9.34.06,14,0,2.11,0,2.89.53,2.67,2.86-1.8,18.73-3.61,37.47-5.08,56.23-.31,4-1.95,5.59-5.51,6.91q-57.78,21.42-115.44,43.19c-1.47.55-3.48.54-4.48,2.73H437c37.33,0,74.65.08,112-.11,4.55,0,5.61,1.16,5.13,5.56-1.54,14.24-2.72,28.52-4,42.78q-5.21,58.23-10.4,116.45c-1,11.25-1.2,11.2-12.15,14.48Q479.26,530.53,431,545Z" transform="translate(-207 -129.02)"/><path class="cls-3" d="M431,545q48.27-14.47,96.54-28.95c11-3.28,11.12-3.23,12.15-14.48q5.29-58.22,10.4-116.45c1.28-14.26,2.46-28.54,4-42.78.48-4.4-.58-5.59-5.13-5.56-37.33.19-74.65.11-112,.11h-2.89c1-2.19,3-2.18,4.48-2.73Q496.25,312.49,554,291c3.56-1.32,5.2-2.9,5.51-6.91,1.47-18.76,3.28-37.5,5.08-56.23.22-2.33-.56-2.9-2.67-2.86-4.66.08-9.33,0-14,0l-117-.16q0-28.5,0-57c0-6.81,0-6.84,6.54-6.84h174c6.54,0,6.37.05,5.75,6.35-1.86,18.69-3.48,37.4-5.32,56.09s-3.88,37.36-5.72,56c-1.83,18.53-3.45,37.08-5.27,55.6-1.83,18.69-3.84,37.37-5.68,56.06-1.5,15.22-2.81,30.45-4.31,45.67-1.49,15-3.16,30.09-4.65,45.14s-2.86,30.11-4.32,45.17c-1,10.26-2.1,20.5-3,30.77-.29,3.31-2.69,3.89-5.08,4.61Q550,569.68,526,576.78q-44.55,13.22-89.1,26.45C431.07,605,431,605,431,599Q431,572,431,545Z" transform="translate(-207 -129.02)"/><path class="cls-4" d="M431,401.18c17.62-.05,35.23-.05,52.85-.21,2.84,0,3.24,1.08,3,3.54q-2.58,28.8-5,57.6c-.16,1.89-.8,3.11-2.66,3.68q-24,7.32-48,14.69Q431.07,440.84,431,401.18Z" transform="translate(-207 -129.02)"/></svg>