<svg id="Layer_1" data-name="Layer 1" xmlns="http://www.w3.org/2000/svg" viewBox="0 0 461.35 298.6"><defs><style>.cls-1{fill:#fff;}</style></defs><title>docker-icon</title><path id="outline" d="M241.7,168.5h47.1v48.2h23.8a105,105,0,0,0,32.8-5.5,83.06,83.06,0,0,0,15.9-7.2c-6.7-8.7-10.1-19.7-11.1-30.5-1.4-14.7,1.6-33.9,11.6-45.4l5-5.7,5.9,4.7c14.9,11.9,27.4,28.6,29.6,47.7,17.9-5.3,38.9-4,54.7,5.1l6.5,3.7-3.4,6.7c-13.3,26-41.2,34.1-68.5,32.7C350.8,324.7,261.9,372.8,154.2,372.8c-55.7,0-106.7-20.8-135.8-70.2l-.5-.8-4.2-8.6C3.9,271.5.6,247.6,2.8,223.8l.7-7.1H43.8V168.5H90.9V121.4h94.3V74.2h56.6v94.3Z" transform="translate(-2.15 -74.2)"/><g id="Containers"><path class="cls-1" d="M85.8,179.7H89v34.1H85.8Zm-6.2,0H83v34.1H79.6Zm-6.2,0h3.4v34.1H73.4Zm-6.1,0h3.4v34.1H67.3Zm-6.2,0h3.4v34.1H61.1Zm-6.1,0h3.2v34.1H55Zm-3.4-3.4H92.5v40.9H51.6Z" transform="translate(-2.15 -74.2)"/><path class="cls-1" d="M133,132.6h3.2v34.1H133Zm-6.2,0h3.4v34.1h-3.4Zm-6.2,0H124v34.1h-3.4Zm-6.2,0h3.4v34.1h-3.4Zm-6.2,0h3.4v34.1h-3.4Zm-6.1,0h3.2v34.1h-3.2Zm-3.4-3.4h40.9v40.9H98.7Z" transform="translate(-2.15 -74.2)"/><path class="cls-1" d="M133,179.7h3.2v34.1H133Zm-6.2,0h3.4v34.1h-3.4Zm-6.2,0H124v34.1h-3.4Zm-6.2,0h3.4v34.1h-3.4Zm-6.2,0h3.4v34.1h-3.4Zm-6.1,0h3.2v34.1h-3.2Zm-3.4-3.4h40.9v40.9H98.7Z" transform="translate(-2.15 -74.2)"/><path class="cls-1" d="M180.1,179.7h3.2v34.1h-3.2Zm-6.2,0h3.4v34.1h-3.4Zm-6.2,0h3.4v34.1h-3.4Zm-6.2,0h3.4v34.1h-3.4Zm-6.1,0h3.4v34.1h-3.4Zm-6.1,0h3.2v34.1h-3.2Zm-3.4-3.4h40.9v40.9H145.9Z" transform="translate(-2.15 -74.2)"/><path class="cls-1" d="M180.1,132.6h3.2v34.1h-3.2Zm-6.2,0h3.4v34.1h-3.4Zm-6.2,0h3.4v34.1h-3.4Zm-6.2,0h3.4v34.1h-3.4Zm-6.1,0h3.4v34.1h-3.4Zm-6.1,0h3.2v34.1h-3.2Zm-3.4-3.4h40.9v40.9H145.9Z" transform="translate(-2.15 -74.2)"/><path class="cls-1" d="M227.3,179.7h3.2v34.1h-3.2Zm-6.2,0h3.4v34.1h-3.4Zm-6.2,0h3.4v34.1h-3.4Zm-6.2,0h3.4v34.1h-3.4Zm-6.2,0h3.4v34.1h-3.4Zm-6.1,0h3.2v34.1h-3.2Zm-3.4-3.4h40.9v40.9H193V176.3Z" transform="translate(-2.15 -74.2)"/><path class="cls-1" d="M227.3,132.6h3.2v34.1h-3.2Zm-6.2,0h3.4v34.1h-3.4Zm-6.2,0h3.4v34.1h-3.4Zm-6.2,0h3.4v34.1h-3.4Zm-6.2,0h3.4v34.1h-3.4Zm-6.1,0h3.2v34.1h-3.2Zm-3.4-3.4h40.9v40.9H193V129.2Z" transform="translate(-2.15 -74.2)"/><path class="cls-1" d="M227.3,85.5h3.2v34.1h-3.2Zm-6.2,0h3.4v34.1h-3.4Zm-6.2,0h3.4v34.1h-3.4Zm-6.2,0h3.4v34.1h-3.4Zm-6.2,0h3.4v34.1h-3.4Zm-6.1,0h3.2v34.1h-3.2ZM193,82h40.9v40.9H193V82Z" transform="translate(-2.15 -74.2)"/><path class="cls-1" d="M274.4,179.7h3.2v34.1h-3.2Zm-6.2,0h3.4v34.1h-3.4Zm-6.2,0h3.4v34.1H262Zm-6.2,0h3.4v34.1h-3.4V179.7Zm-6.2,0H253v34.1h-3.4Zm-6,0h3.2v34.1h-3.2Zm-3.4-3.4H281v40.9H240.1l.1-40.9Z" transform="translate(-2.15 -74.2)"/></g><path class="cls-1" d="M137,283.4a11.3,11.3,0,1,1-11.3,11.3A11.42,11.42,0,0,1,137,283.4" transform="translate(-2.15 -74.2)"/><path d="M137,286.6a9.29,9.29,0,0,1,2.9.5,3.24,3.24,0,0,0-1.6,2.9,3.33,3.33,0,0,0,3.3,3.3,3.45,3.45,0,0,0,2.9-1.7,8.15,8.15,0,0,1,.6,3.1,8.1,8.1,0,0,1-16.2,0,8.26,8.26,0,0,1,8.1-8.1" transform="translate(-2.15 -74.2)"/><path class="cls-1" d="M167,364.7c-27.9-13.2-43.2-31.3-51.8-50.9-10.4,3-22.8,4.9-37.3,5.7-5.5.3-11.2.5-17.2.5-6.9,0-14.3-.2-21.9-.6C64.4,345,95.9,364.7,154.2,365Z" transform="translate(-2.15 -74.2)"/></svg>