<svg id="Layer_1" data-name="Layer 1" xmlns="http://www.w3.org/2000/svg" viewBox="0 0 448 512"><defs><style>.cls-1{fill:#e34d26;}.cls-2{fill:#fefefe;}.cls-3{fill:#fe6c39;}.cls-4{fill:#fe6c3a;}</style></defs><title>html-icon</title><path class="cls-1" d="M515,641h-5c-1-1.67-2.81-1.56-4.33-2q-84.45-23.12-169-46.06c-4.44-1.2-6-3.1-6.38-7.62-1.57-19.92-3.52-39.82-5.32-59.72q-4.2-46.53-8.39-93.07-4.77-52.5-9.6-105-4.23-46.53-8.4-93.07Q293.84,181.75,289,129H737q-3.19,35.58-6.39,71.16-4.79,52.76-9.62,105.5-4.2,46.27-8.38,92.56-4.29,47.26-8.62,94.54c-2.82,31-5.69,62-8.37,93.06-.35,4-1.69,5.89-5.82,7q-70.34,18.91-140.55,38.31C537.8,634.29,526.12,636.68,515,641Zm-2-239.84.17,79.3c-16.39-4.33-32.32-10.15-48.5-15.13-2.67-.82-2.24-3.05-2.44-4.89-.86-7.77-1.68-15.56-2.3-23.36-.25-3.05-1.22-4.2-4.54-4.16-17.49.18-35,.24-52.48,0-4.41-.07-5.15,1.21-4.74,5.31,2.15,21.2,4.06,42.43,5.94,63.66,1,10.89.86,10.9,11.43,14,1.27.38,2.55.73,3.83,1.11L513,545q0,27,0,54c0,6,.07,6,5.91,4.22Q563.46,590,608,576.76q24-7.11,47.89-14.25c2.18-.65,4.7-1.06,5-4.1.33-3.31.75-6.61,1.07-9.92,1.46-15.22,2.87-30.45,4.36-45.67,1.86-19,3.79-38,5.66-57.06,1.48-15.06,2.88-30.12,4.39-45.17,1.82-18.19,3.78-36.37,5.56-54.57,1.84-18.86,3.45-37.74,5.3-56.6,2.16-22,4.53-44,6.7-66,1.84-18.69,3.47-37.41,5.33-56.1.62-6.27.77-6.33-5.78-6.33h-174c-6.51,0-6.53,0-6.53,6.84q0,28.5,0,57c-1.83,0-3.66.15-5.49.15H385c-6.51,0-6.45,0-5.79,6.47,1.93,18.88,3.95,37.75,5.67,56.65q4.83,53.49,9.27,107c.4,4.91,2.05,6,6.85,6C438.35,401,475.66,401.11,513,401.16Z" transform="translate(-289 -129)"/><path class="cls-2" d="M513,545l-93.65-28c-1.28-.38-2.56-.73-3.83-1.11-10.57-3.13-10.47-3.14-11.43-14-1.88-21.23-3.79-42.46-5.94-63.66-.41-4.1.33-5.38,4.74-5.31,17.49.27,35,.21,52.48,0,3.32,0,4.29,1.11,4.54,4.16.62,7.8,1.44,15.59,2.3,23.36.2,1.84-.23,4.07,2.44,4.89,16.18,5,32.11,10.8,48.5,15.13,16-5,32-10.07,48-15,2.35-.73,2.43-2.45,2.59-4.26,1.7-18.88,3.36-37.77,5.09-56.65.22-2.35,0-3.64-3-3.61-17.63.18-35.27.17-52.9.22-37.32-.05-74.63-.21-111.94,0-4.8,0-6.45-1.1-6.85-6q-4.38-53.52-9.27-107c-1.72-18.9-3.74-37.77-5.67-56.65-.66-6.47-.72-6.47,5.79-6.47H507.49c1.83,0,3.66-.1,5.49-.15,1.16,0,2.32.15,3.49.15q62.71,0,125.43-.07c3.83,0,5,.64,4.53,4.88-1.79,16.72-3.11,33.49-4.54,50.24-.76,9-.71,9-9.48,9h-6.5L513,289.16c-20.32-.05-40.63-.07-61-.21-2.53,0-3.08.84-2.85,3.21Q451.12,313,452.8,334c.18,2.32.82,3.11,3.23,3.09,19-.15,38-.16,57-.21,2,.05,4,.15,6,.15,37.48,0,75,.07,112.45-.08,4,0,5.1,1,4.68,5-1.51,14.41-2.72,28.85-4,43.28q-5.21,58.2-10.4,116.42c-1,11.24-1.2,11.19-12.16,14.47Q561.26,530.51,513,545Z" transform="translate(-289 -129)"/><path class="cls-3" d="M513,289.16,625.91,289h6.5c8.77,0,8.72,0,9.48-9,1.43-16.75,2.75-33.52,4.54-50.24.45-4.24-.7-4.89-4.53-4.88q-62.71.18-125.43.07c-1.17,0-2.33-.1-3.49-.15q0-28.5,0-57c0-6.8,0-6.84,6.53-6.84h174c6.55,0,6.4.06,5.78,6.33-1.86,18.69-3.49,37.41-5.33,56.1-2.17,22-4.54,44-6.7,66-1.85,18.86-3.46,37.74-5.3,56.6-1.78,18.2-3.74,36.38-5.56,54.57-1.51,15.05-2.91,30.11-4.39,45.17-1.87,19-3.8,38-5.66,57.06-1.49,15.22-2.9,30.45-4.36,45.67-.32,3.31-.74,6.61-1.07,9.92-.31,3-2.83,3.45-5,4.1Q632,569.68,608,576.76,563.46,590,518.92,603.21C513.08,604.94,513,605,513,599q0-27,0-54,48.25-14.47,96.53-29c11-3.28,11.13-3.23,12.16-14.47q5.29-58.2,10.4-116.42c1.29-14.43,2.5-28.87,4-43.28.42-4-.7-5-4.68-5-37.48.15-75,.09-112.45.08-2,0-4-.1-6-.15Z" transform="translate(-289 -129)"/><path class="cls-4" d="M513,401.16c17.63-.05,35.27,0,52.9-.22,3,0,3.17,1.26,3,3.61-1.73,18.88-3.39,37.77-5.09,56.65-.16,1.81-.24,3.53-2.59,4.26-16,4.93-32,10-48,15Q513.06,440.81,513,401.16Z" transform="translate(-289 -129)"/><path class="cls-1" d="M513,289.16v47.68c-19,.05-38,.06-57,.21-2.41,0-3-.77-3.23-3.09q-1.65-20.93-3.62-41.8c-.23-2.37.32-3.22,2.85-3.21C472.35,289.09,492.66,289.11,513,289.16Z" transform="translate(-289 -129)"/></svg>