<svg id="Layer_1" data-name="Layer 1" xmlns="http://www.w3.org/2000/svg" viewBox="0 0 623.16 596.73"><defs><style>.cls-1{fill:#010101;}.cls-2{fill:#e9e9e9;}</style></defs><title>jQuery-icon</title><path class="cls-1" d="M776,505.6c-.45,3.85-2.48,7.11-4.24,10.37-34.49,64-84.12,110.95-153.15,136a295.17,295.17,0,0,1-101.37,17.71c-1.05,0-2.11.06-3.17.1H501.31a359.51,359.51,0,0,1-58.75-5.52c-25-4.42-48.56-12.95-71.32-23.85-72.64-34.79-128.76-87.08-166.49-158.51a307.76,307.76,0,0,1-34.91-117.78c-.21-2.42.22-5-1.08-7.29V323.79c1.56-4.18,1.2-8.63,1.77-13,5.31-40.36,19.24-77.17,44.67-109.29l32.33-40.86a11.69,11.69,0,0,0,.75-1.25c1,1.39.2,2.17-.14,2.87a237.72,237.72,0,0,0-20.42,67.43,258.71,258.71,0,0,0-1.95,57.72c5.25,66.91,30.73,125.74,73.56,177C348.93,523.71,411,564.09,486,584.07c33.46,8.92,67.67,10.63,102.11,9.38C628.72,592,667.36,582.54,703.65,564c26.66-13.6,49.33-32.29,68.89-54.87,1.07-1.24,1.87-2.8,3.49-3.5Z" transform="translate(-168.76 -73.62)"/><path class="cls-1" d="M791.92,350.5c-2.59,4.1-4,8.76-6.17,13-29.65,57.92-76.06,94.08-139.91,107.08a259.58,259.58,0,0,1-100.75.88c-35.54-6.71-67.1-22.65-96-44.07-37.93-28.12-66.49-63.67-84.16-107.63a204,204,0,0,1-14.19-93.61,168.09,168.09,0,0,1,30-83.78c8.14-11.74,16.39-23.4,24.61-35.08.4-.57.67-1.36,1.52-1.54.64.6.14,1.11-.11,1.65-22,47.83-23.58,96.64-6.27,146.07,17.57,50.15,49.12,89.88,92,120.74,31.19,22.43,65.7,37.4,103.6,43.95C641,426,684.81,422.83,726.3,402.53c24.17-11.82,45-28.11,61.64-49.46,1-1.31,1.52-3.57,4-3.21Z" transform="translate(-168.76 -73.62)"/><path class="cls-2" d="M501.32,670.35a4.87,4.87,0,0,0,0-.54h12.74c0,.17,0,.35,0,.53Z" transform="translate(-168.76 -73.62)"/><path class="cls-1" d="M538.36,73.62c.84,1.33.09,2-.22,2.75-13,30.18-12.83,60.84-.72,90.84,21.53,53.38,60.93,86.73,117,100a155.36,155.36,0,0,0,51.08,3.8c24.48-2.39,45.81-11.4,62.68-29.8.57-.62,1.16-1.23,1.76-1.81.13-.12.4-.1.63-.16.94.85.1,1.53-.27,2.17C751.44,274.61,724,296.29,686,303.08c-12.73,2.27-25.75,1.33-38.68,1.38-50,.22-120.47-44.85-138.49-112.77C499.19,155.54,504.62,121.89,526,91,530,85.19,534.16,79.5,538.36,73.62Z" transform="translate(-168.76 -73.62)"/><path class="cls-1" d="M776,505.67l.4-.57c0,.09.13.19.12.27-.06.35-.26.44-.57.23Z" transform="translate(-168.76 -73.62)"/></svg>