<svg id="svg4525" xmlns="http://www.w3.org/2000/svg" viewBox="0 0 2198.97 2499.14"><defs><style>.cls-1{fill:#d4b830;}.cls-2,.cls-3{fill:#ebebeb;opacity:0.99;isolation:isolate;}.cls-2{fill-opacity:0;}.cls-3{fill-opacity:0.92;}.cls-4{fill:#fdd83c;}</style></defs><title>js-icon</title><g id="g5193"><path id="path5113" class="cls-1" d="M204,2247.13-.09.13l2199,.86-202.4,2244.42-898.8,253.86ZM1831,2124.49,2001.63,200H1101.11L1108,2322.6ZM1017.06,482.12H798.37l-2.57,1151.8L371.27,1518.14l.85,263.29,644.94,174.1V482.12Z" transform="translate(0.09 -0.13)"/><path id="path5159" class="cls-2" d="M945,1934.09c-28.3-8.58-168.09-46.31-310.46-84.9l-258.15-69.47V1650.21c0-126.93,0-129.5,12.87-125.21,6.86,2.57,101.2,28.3,209.26,58.32l196.4,54,1.71-574.61,1.72-574.62h214.41v730.7c0,580.62-1.72,730.71-7.72,730.71-4.29-.86-31.73-7.72-60-15.44Z" transform="translate(0.09 -0.13)"/><path id="path5157" class="cls-3" d="M372.12,1781.43l-.85-263.29s271,76.33,424.53,115.78L798.37,483h218.69V1955.53l-644.94-174.1Z" transform="translate(0.09 -0.13)"/><path id="path5117" class="cls-4" d="M1101.11,199.1h900.52L1831,2123.63l-729.85,198.11Zm683.54,1602.06,59.17-719.56-437.39,48.89V746.27L1873,744.55l18.87-262.43-704.12,3.43,9.44,955.4,425.38-72.9-6,212.7-428.82,114.06,4.29,260.72,592.63-154.37Z" transform="translate(0.09 -0.13)"/></g></svg>