<svg id="Layer_1" data-name="Layer 1" xmlns="http://www.w3.org/2000/svg" viewBox="0 0 636.87 517.02"><defs><style>.cls-1{fill:#949494;}.cls-2{fill:#efefef;}.cls-3{fill:#d6d6d6;}</style></defs><title>MUI Icon</title><path class="cls-1" d="M932.69,758.61V977.16L970.29,956V779.75l-37.6-21.14Z" transform="translate(-895.09 -671.65)"/><path class="cls-2" d="M895.09,956V692.81l223.26,126.9v44.65L932.69,758.61V977.16L895.09,956Z" transform="translate(-895.09 -671.65)"/><path class="cls-1" d="M1346.3,692.8V956l-150.4,84.6-37.6-23.5,150.41-84.6V756.25L1118.35,864.36V819.71l228-126.9Z" transform="translate(-895.09 -671.65)"/><path class="cls-3" d="M1308.71,671.65l-188,105.76-188-105.76-37.6,21.15,223.26,126.91,228-126.9-37.61-21.16Z" transform="translate(-895.09 -671.65)"/><path class="cls-2" d="M1271.1,777.41v134l37.61,21.15V756.26l-37.61,21.15Z" transform="translate(-895.09 -671.65)"/><path class="cls-3" d="M1083.1,1017.11l188-105.75,37.61,21.15-150.41,84.6,148.06,84.61,150.4-84.61,37.6,21.15-188,105.76L1083.1,1017.11Z" transform="translate(-895.09 -671.65)"/><path class="cls-2" d="M1083.1,1017.11v44.66l223.26,126.9V1144L1083.1,1017.11Zm411.26,21.15V906.66l-37.6-21.15v131.6l37.6,21.15Z" transform="translate(-895.09 -671.65)"/><path class="cls-1" d="M1306.35,1144l188-105.76V906.66l37.6-21.15v176.26l-225.6,126.9V1144Z" transform="translate(-895.09 -671.65)"/><path class="cls-3" d="M1532,885.51l-37.6,21.15-37.6-21.15,37.6-21.15,37.6,21.15Z" transform="translate(-895.09 -671.65)"/><path class="cls-1" d="M1494.36,864.36V819.71l37.6-21.15v44.65l-37.6,21.15Z" transform="translate(-895.09 -671.65)"/><path class="cls-2" d="M1494.36,819.71v44.65l-37.6-21.15V798.55l37.6,21.15Z" transform="translate(-895.09 -671.65)"/><path class="cls-3" d="M1532,798.56l-37.6,21.15-37.6-21.15,37.6-21.15,37.6,21.15Z" transform="translate(-895.09 -671.65)"/></svg>