<svg id="Layer_1" data-name="Layer 1" xmlns="http://www.w3.org/2000/svg" viewBox="0 0 376.17 424.65"><defs><style>.cls-1{fill:#8cc84b;}</style></defs><title>nodejs-icon</title><path class="cls-1" d="M221.07,64.52a34.06,34.06,0,0,1,34,0l155,89.69a32.82,32.82,0,0,1,16.12,28.15V362.29c.07,11.94-7.11,23.28-17.32,28.76L254.39,480.31a33.09,33.09,0,0,1-34.31-1q-23.15-13.75-46.33-27.45c-3.16-1.92-6.71-3.46-8.94-6.59,2-2.72,5.53-3.06,8.36-4.25,6.44-2.1,12.35-5.47,18.27-8.74a4.15,4.15,0,0,1,4.74.29c13.2,7.76,26.28,15.74,39.5,23.42,2.83,1.67,5.69-.55,8.1-1.93q75.78-43.89,151.63-87.67a5.16,5.16,0,0,0,2.75-5.06q.06-89,0-178.07a5.57,5.57,0,0,0-3.23-5.54Q318,133.32,241,88.87a5.23,5.23,0,0,0-6,0q-77,44.43-153.88,88.9a5.52,5.52,0,0,0-3.25,5.52V361.36a5,5,0,0,0,2.79,5q20.53,11.92,41.08,23.77c7.72,4.26,17.2,6.8,25.7,3.53a20,20,0,0,0,12.64-18.77q.1-88.5,0-177a4.32,4.32,0,0,1,4.74-4.54c6.57,0,13.16-.09,19.75,0,2.74-.07,4.63,2.75,4.3,5.39q0,89.07,0,178.15c0,15.82-6.32,33-20.62,40.78C150.65,427,128.9,425,111.51,416c-15.05-7.7-29.42-16.78-44.24-25A33.09,33.09,0,0,1,50,362.23V182.3a32.86,32.86,0,0,1,16.67-28.5Q143.88,109.22,221.07,64.52Z" transform="translate(-49.96 -59.98)"/><path class="cls-1" d="M266,189.16c22.45-1.48,46.49-.88,66.69,10.45,15.65,8.68,24.31,26.91,24.59,44.72a4.7,4.7,0,0,1-5.12,3.56c-6.52,0-13,.09-19.54,0-2.77.11-4.37-2.5-4.74-5-1.88-8.52-6.41-17-14.22-21.05-12-6.16-25.95-5.85-39.05-5.72-9.56.52-19.85,1.37-27.95,7.13-6.22,4.37-8.11,13.18-5.89,20.28,2.09,5.09,7.84,6.73,12.53,8.25,27.06,7.29,55.73,6.53,82.27,16.07,11,3.89,21.74,11.45,25.5,23.24,4.92,15.8,2.77,34.68-8.21,47.36C344,348.84,331,354.52,318.08,357.6c-17.19,3.94-35,4-52.49,2.29-16.42-1.91-33.51-6.33-46.18-17.8-10.84-9.64-16.13-24.67-15.6-39.17a4.42,4.42,0,0,1,4.8-3.95q9.82-.09,19.67,0c2.62-.19,4.56,2.13,4.7,4.65,1.21,8.1,4.18,16.65,11.1,21.45,13.32,8.82,30,8.21,45.32,8.46,12.64-.57,26.86-.75,37.13-9.31,5.44-4.86,7.05-13.06,5.58-20.09-1.58-5.94-7.65-8.7-12.86-10.53-26.71-8.66-55.7-5.52-82.16-15.3-10.73-3.89-21.12-11.24-25.28-22.54-5.76-16-3.16-35.79,9-48,11.85-12.19,28.88-16.88,45.1-18.56Z" transform="translate(-49.96 -59.98)"/></svg>