<svg id="Layer_1" data-name="Layer 1" xmlns="http://www.w3.org/2000/svg" viewBox="0 0 476.08 524.63"><defs><style>.cls-1{fill:#8cc84b;}</style></defs><title>nodejs-icon</title><path class="cls-1" d="M1113.52,917.35a44,44,0,0,1,43,0q98.08,55.42,196.17,110.81c12.3,6.93,20.53,20.61,20.4,34.78v222.3c.09,14.75-9,28.76-21.92,35.53q-97.75,55.13-195.47,110.28a42.75,42.75,0,0,1-43.43-1.21q-29.31-17-58.65-33.91c-4-2.38-8.5-4.28-11.32-8.15,2.5-3.36,7-3.78,10.58-5.24,8.15-2.6,15.64-6.76,23.13-10.8,1.9-1.3,4.21-.8,6,.36,16.71,9.58,33.27,19.44,50,28.93,3.58,2.06,7.2-.68,10.26-2.38q95.92-54.23,191.93-108.32a6.35,6.35,0,0,0,3.49-6.25q.06-110,0-220a6.87,6.87,0,0,0-4.1-6.85q-97.42-54.87-194.8-109.8a6.75,6.75,0,0,0-7.64,0q-97.41,54.9-194.78,109.84a6.8,6.8,0,0,0-4.12,6.82q0,110,0,220a6.23,6.23,0,0,0,3.53,6.17q26,14.73,52,29.37c9.77,5.26,21.77,8.39,32.53,4.36a24.68,24.68,0,0,0,16-23.19c.09-72.9,0-145.81.07-218.7a5.49,5.49,0,0,1,6-5.61c8.32,0,16.66-.11,25,0,3.47-.08,5.86,3.4,5.44,6.66,0,73.37.08,146.73-.06,220.1,0,19.55-8,40.82-26.1,50.39-22.28,11.54-49.81,9.09-71.83-2-19.05-9.52-37.24-20.74-56-30.93-13-6.73-22-20.8-21.91-35.54v-222.3c-.14-14.46,8.42-28.39,21.1-35.22Q1015.8,972.57,1113.52,917.35Z" transform="translate(-896.96 -911.76)"/><path class="cls-1" d="M1170.37,1071.34c28.42-1.83,58.84-1.09,84.42,12.91,19.8,10.73,30.77,33.25,31.12,55.25-.55,3-3.65,4.6-6.48,4.4-8.25,0-16.5.11-24.74-.06-3.5.14-5.53-3.09-6-6.18-2.37-10.52-8.11-21-18-26-15.21-7.61-32.84-7.23-49.42-7.07-12.11.64-25.13,1.69-35.38,8.81-7.88,5.39-10.27,16.28-7.46,25.05,2.65,6.29,9.92,8.32,15.86,10.2,34.25,9,70.55,8.06,104.14,19.85,13.91,4.81,27.52,14.15,32.28,28.71,6.23,19.52,3.5,42.85-10.39,58.52-11.26,12.89-27.66,19.91-44,23.72-21.76,4.86-44.35,5-66.45,2.83-20.78-2.37-42.41-7.83-58.45-22-13.72-11.91-20.42-30.47-19.75-48.39.16-3,3.17-5.13,6.07-4.88,8.3-.07,16.6-.09,24.91,0,3.31-.24,5.77,2.63,5.94,5.75,1.53,10,5.3,20.56,14.05,26.5,16.87,10.89,38,10.14,57.37,10.45,16-.71,34-.93,47-11.51,6.89-6,8.93-16.13,7.07-24.82-2-7.33-9.69-10.75-16.28-13-33.81-10.7-70.51-6.82-104-18.91-13.59-4.81-26.74-13.89-32-27.85-7.29-19.77-4-44.22,11.39-59.36,15-15.06,36.56-20.86,57.09-22.93Z" transform="translate(-896.96 -911.76)"/></svg>