<svg id="Layer_1" data-name="Layer 1" xmlns="http://www.w3.org/2000/svg" viewBox="0 0 1164.69 1036.84"><defs><style>.cls-1{fill:#61d9fa;}</style></defs><title>react-icon</title><path class="cls-1" d="M953.41,217.85c.21,45.74-6.22,89.77-15.44,133.48-2,9.29-2,9,6.94,11.91,53.34,17,104.69,38.41,151.24,70.06,23.83,16.21,45.5,34.81,62.25,58.58,13.42,19.06,22.16,39.92,22.34,63.53.14,18.51-5.15,35.78-14.27,51.86-15.46,27.25-37.81,48-62.81,66.16-39.83,28.92-84.12,49.11-130.14,65.81-10.48,3.8-21,7.45-31.69,10.67-3.81,1.15-4.21,3-3.46,6.18q5.65,24,9.31,48.45C951,826.91,954,849.3,954.4,872c.23,11.29,1.07,22.58.73,33.87-1,33.1-5.12,65.68-17.9,96.58-11.37,27.5-28.45,50-56.55,62.42-18.95,8.36-38.93,10-59.22,7.76-43.4-4.68-81.69-23-118.37-45.3-36-21.85-68.82-48-99.66-76.58-3.51-3.25-5.4-2.64-8.55.29-35.38,32.84-73.2,62.46-115.34,86.27-26.21,14.81-53.57,26.74-83.11,33.27-15.73,3.48-31.76,5.18-47.62,3.39-34.76-3.92-60.72-22-78.32-52.16-12.61-21.61-19.08-45.24-23.19-69.67-4.5-26.72-5-53.67-3.77-80.61,1.81-38.77,7.57-77.06,16.17-114.9.91-4,.13-5.38-3.86-6.63-54.52-17.16-107.09-38.68-154.69-70.92-25.55-17.3-48.72-37.24-65.79-63.36-12.65-19.37-20.3-40.32-19.2-63.93,1.05-22.59,9.6-42.34,22.53-60.39,21.46-30,50.19-51.71,81.35-70.51,42-25.35,87.18-43.53,133.81-58.27,4.55-1.44,5.8-2.86,4.69-7.89C250.83,320,245.1,284.89,243,249.27c-2.22-38.39-1.47-76.54,8.26-114,6.62-25.47,16.9-49.25,35.92-68.09,18.52-18.35,41.09-26.82,67.33-28.22,34.25-1.83,65.32,8.38,95.64,22,40.38,18.16,76.47,43.21,110.51,71.28,11.56,9.53,22.79,19.46,33.95,29.46,2.8,2.52,4.24,2.21,6.83-.22,27.39-25.67,56.46-49.27,87.9-69.83s64.17-38,100.6-47.82A177.62,177.62,0,0,1,828.32,38c27.3-1.23,52.12,4.68,73.3,22.47,18.39,15.45,29.72,35.67,37.51,58,7.7,22.13,11.48,45,13.29,68.33C953.25,197.49,953.08,208.13,953.41,217.85Zm-290,526.31c9.22.36,17.89-1.61,26.68-1.9,15.3-.52,15.32-.51,23.78-13.12A1299,1299,0,0,0,810,560a8.86,8.86,0,0,0,0-8.45c-7.74-16-15.62-32-23.94-47.77a1290.11,1290.11,0,0,0-78.83-129.66A6.78,6.78,0,0,0,702,371c-13.36-1.82-26.83-1.68-40.24-2.57-18.4-1.22-36.86-1.62-55.3-1.92-19.12-.32-38.21.77-57.31,1.53-17.8.71-35.55,1.65-53.3,3-3.54.27-5.7,1.41-7.68,4.33a1313.41,1313.41,0,0,0-101.55,177,9.22,9.22,0,0,0,.12,8.88c12.78,26.2,25.89,52.21,40.27,77.57q29,51.08,62.35,99.4a6.64,6.64,0,0,0,5.59,3.3c16.21,1.12,32.38,3,48.6,3.56,15.8.5,31.63.75,47.44.92C615.27,746.24,639.55,745.41,663.41,744.16Zm463.92-188.37c-.31-3.51.17-6.95-.76-10.45-2.46-9.18-7-17.27-12.55-24.79-15-20.27-34.74-35.28-55.69-48.74C1017.55,445.6,973,427.74,927.09,413c-3.5-1.13-4.66-.29-5.61,3-3.17,10.84-6.41,21.68-9.92,32.42-11.48,35.13-24.89,69.52-39.77,103.34a9,9,0,0,0,.14,8c4.52,10.37,9,20.75,13.3,31.22A1076.17,1076.17,0,0,1,922,694.74c.92,3.11,1.45,5.37,5.94,3.94,38.28-12.24,75.53-26.93,110.64-46.64,25.22-14.17,49.12-30.23,68.41-52.12C1118.06,587.33,1127.83,573.84,1127.33,555.79ZM901.09,217.31c-.61-13-.85-28.19-2.93-43.21-2.64-19-6.77-37.69-16-54.79-5.87-10.92-13.37-20.39-25.49-24.93-12.5-4.69-25.35-4.85-38.36-2.73C791.66,96,767.42,106.89,744.14,120c-38.66,21.8-73.21,49.14-105.77,79.13-2.44,2.25-2.11,3.39-.09,5.48,33.43,34.74,63.88,72,92.38,110.81,2.93,4,6.31,5.24,10.77,5.78,16.66,2,33.36,3.86,49.94,6.42,30.22,4.66,60.28,10.25,90,17.73,3.85,1,4.24-.82,4.75-3.4,1.24-6.19,2.44-12.39,3.67-18.58A592.15,592.15,0,0,0,901.09,217.31Zm-605,678c-.36,20.88,1.47,44.36,7.22,67.43a130.16,130.16,0,0,0,9.53,26.73c14.47,29,32.83,34.44,61.91,31.32,21.06-2.25,40.67-9.89,59.54-19.18,46.11-22.72,86.15-54,123.88-88.53,2.25-2.06,2.31-3.31.18-5.57a1160.73,1160.73,0,0,1-93.75-112.82,7.94,7.94,0,0,0-6.11-3.51c-18.79-2.28-37.61-4.44-56.33-7.3q-43.35-6.65-86-17c-3.9-1-4.86.2-5.57,3.57C302.08,810.66,295.77,851.15,296,895.27Zm-228-339.16c1.25,12.56,6.17,23.71,13.49,33.82,11.35,15.68,25.65,28.38,41.27,39.61,44.58,32.05,94.59,52.67,146.45,69.39,3.86,1.24,4.91-.34,5.85-3.56a1088.06,1088.06,0,0,1,49.64-135.28,7.94,7.94,0,0,0,.08-7.05Q309,517.48,295.58,480.91c-7.85-21.39-15.07-43-21.49-64.87-.64-2.17-.81-4.31-4.53-3.1-45.57,14.76-89.9,32.32-130.41,58.31C116.91,485.52,96,501.36,80.57,523.37A69.43,69.43,0,0,0,68.05,556.11Zm227.1-332.47c-.58,15,1,32.32,3.1,49.62,2.83,23.27,6.9,46.33,11.92,69.23.72,3.25,1.9,3.83,5.13,3,8.18-2.17,16.49-3.9,24.77-5.71q34.82-7.61,70.1-12.73c15.46-2.25,30.92-4.38,46.46-6a11.09,11.09,0,0,0,8.59-4.93q22.9-31.81,48.15-61.85c14.11-16.86,28.78-33.21,43.77-49.29,1.7-1.83,3.17-3.11.43-5.58-33.73-30.41-69-58.79-109.2-80.26-29.56-15.79-59.8-30-94.91-27-7.47.64-14.46,2.11-20.79,6.09-14.1,8.87-21,22.87-26.22,37.82C296.9,163.59,294.79,192.22,295.15,223.64Zm540.2,796.74c12.87.25,24.84-2.11,34.71-11.18,12.68-11.64,18.77-26.88,23.15-42.9,9.34-34.15,9.38-69,7.25-104-1.86-30.45-7-60.37-13.29-90.15-1.43-6.76-1.36-6.76-7.94-5.19a1146.93,1146.93,0,0,1-141.38,24.12,6.67,6.67,0,0,0-5.25,3c-28.67,39.53-59.5,77.29-93.27,112.6-2.19,2.29-2.43,3.53.2,5.88,10.82,9.63,21.68,19.21,33,28.31,30.39,24.57,62.38,46.68,98.12,62.85C791.17,1013.11,812.44,1020.07,835.35,1020.38ZM532,315.57c44.29-3.38,87.35-2.52,131-.12a17.67,17.67,0,0,0-1.23-2.78q-29.29-37.05-61.84-71.31c-2-2.12-3.08-1.46-4.65.26-7.39,8.14-14.94,16.13-22.27,24.32C559,281.55,545.71,297.76,532,315.57Zm1.84,482a9.55,9.55,0,0,0,.78,1.53A933.71,933.71,0,0,0,596.11,870c2.45,2.54,3.75,2.08,5.87-.21,18.12-19.54,35.78-39.48,52.33-60.38,3-3.78,6.58-7.22,8.68-12.07C619.69,798.94,577,798.57,533.81,797.54Zm240.85-64.77c1.6-.11,2.22-.11,2.83-.2q45.09-6.68,89.46-17.15c4.21-1,5.47-1.94,4.07-6.36-7.43-23.62-15.13-47.14-24-70.27-2.31-6.06-4.72-12.09-7.49-19.18C819.47,658.9,798.24,696.07,774.66,732.77ZM356.83,492.35C376.93,453,398.27,416,421.39,379.74c-2.86-.93-4.72.19-6.66.46-29.15,4.12-58,10-86.64,16.53-3.21.73-3.93,1.59-2.91,4.88,5.78,18.59,11.65,37.14,18.27,55.45C347.55,468.43,352,479.67,356.83,492.35ZM774.26,378.87a1287.67,1287.67,0,0,1,65.2,112.43c1-2.3,1.62-3.78,2.2-5.28,10.51-27.5,20.22-55.27,28.68-83.48,1.3-4.32,0-5.42-3.82-6.27-21.56-4.79-43.17-9.36-65-13C792.94,381.81,784.3,380.48,774.26,378.87Zm-352,354.32c-23.77-37.05-45.52-73.68-65-111.87-.66.69-1,.87-1.07,1.13-11.28,29-21.55,58.27-30.3,88.11-.9,3.07-.26,4.05,2.77,4.74,19.26,4.38,38.56,8.56,58,11.91C398.09,729.17,409.48,731,422.28,733.19Z" transform="translate(-16.06 -37.84)"/><path class="cls-1" d="M706.38,556.06c0,60.34-48.18,108.2-108.61,108.29-57.12.08-108.17-45.61-108.15-108.44,0-60.59,48.12-108.48,108.81-108.37C661.36,447.66,707.13,499.29,706.38,556.06Z" transform="translate(-16.06 -37.84)"/></svg>