<svg id="Layer_1" data-name="Layer 1" xmlns="http://www.w3.org/2000/svg" viewBox="0 0 656.33 357.07"><defs><style>.cls-1{fill:#62d9fa;}.cls-2{fill:#424242;}</style></defs><title>react-router-icon</title><path class="cls-1" d="M540.82,201.59c-.32,14.65-6.53,29.71-19.68,41.66a54.12,54.12,0,0,1-22.72,12,219.16,219.16,0,0,1-23.82,4.63c-3.68.58-7.36,1.18-11.05,1.73-2.43.36-4.9.29-7.35.44-9.62.57-18.84,2.64-27.14,7.75-6.68,4.11-10.87,10.23-13.63,17.45-2.48,6.51-3.67,13.3-4.62,20.16-2.18,15.84-6.51,30.93-16,44.11a60.91,60.91,0,0,1-33.16,23.26,57.84,57.84,0,0,1-17.92,2.44c-13.62-.34-25.71-5-36.43-13.31a58.53,58.53,0,0,1-22-37.78,56.55,56.55,0,0,1,2.54-27.87c5.07-13.85,14.27-24.29,26.82-31.88,8.06-4.89,16.86-7.61,26.08-9.29,7.7-1.4,15.46-2.36,23.24-3.16,5.47-.57,11-.84,16.42-1.72,9.14-1.48,17.55-4.52,23.92-11.69,4.63-5.2,7.17-11.45,8.95-18.07a76.11,76.11,0,0,0,2.43-24.63,109.22,109.22,0,0,0-5.51-29.28C406.51,158,399,151,388.62,147a67.76,67.76,0,0,0-19.27-4.16c-14.35-1.15-28.65-2.75-42.43-7.11-22.4-7.1-36.52-22-41.12-45.23-3.71-18.78,1.36-35.34,13.81-49.72a56.74,56.74,0,0,1,27.9-18.12,65,65,0,0,1,21.08-2.32c13.29.73,25.33,4.92,35.62,13.54A54.69,54.69,0,0,1,399.05,53.7c5.49,12.21,8.64,25.09,11,38.2a99.18,99.18,0,0,0,4.62,18.5c4.24,11.08,12.17,18,23.5,21.19a99.19,99.19,0,0,0,16,2.78c7.32.82,14.63,1.7,21.9,2.88a186.71,186.71,0,0,1,24.75,5.54c16.27,5,27.79,15.33,34.79,30.75C539.16,181.48,540.8,189.88,540.82,201.59Z" transform="translate(-14.34 -20.2)"/><path class="cls-2" d="M611.15,377.14a59.68,59.68,0,0,1-59.49-59.78c.23-32.55,26.89-59.2,59.4-59.2s59.85,26.52,59.61,59.66S643.48,377.53,611.15,377.14Z" transform="translate(-14.34 -20.2)"/><path class="cls-2" d="M214.38,139.14a59.49,59.49,0,1,1-.06,119c-32.78-.05-59.59-26.86-59.5-59.52A59.66,59.66,0,0,1,214.38,139.14Z" transform="translate(-14.34 -20.2)"/><path class="cls-2" d="M14.34,322V313A56.17,56.17,0,0,1,23,286.53c9.28-14.69,22.47-23.87,39.52-27.31,25.27-5.09,51.8,7.73,63.72,30.62a59.55,59.55,0,0,1,6.56,34.5c-2.63,24.84-21.76,46.11-46.12,51.34a59.47,59.47,0,0,1-69.76-40.12A51.82,51.82,0,0,1,14.34,322Z" transform="translate(-14.34 -20.2)"/></svg>