<svg id="Layer_1" data-name="Layer 1" xmlns="http://www.w3.org/2000/svg" viewBox="0 0 380.77 361.8"><defs><style>.cls-1{fill:#774cbb;}</style></defs><title>redux-icon</title><path class="cls-1" d="M421.7,323a179.8,179.8,0,0,0,22.81,88.7c1.7,3.05,3.23,4.49,7.16,4.4,13.64-.33,26.21,11.33,27,24.36,1,15.85-9,28.2-24.18,30.1-13.7,1.7-27.09-8.47-29.77-22.37a24.74,24.74,0,0,1,2-15.51,6.14,6.14,0,0,0-.32-6.43c-12.52-22.13-21.69-45.56-25.72-70.73-7.37-46-1.19-89.54,26.08-128.33,16.31-23.21,38.85-38.09,67.1-42.93,26.25-4.51,49.72,2.65,70.14,19.47,24.56,20.22,36.9,47.3,42.69,77.91,1.11,5.88,1.65,11.82,2.44,17.73.45,3.41-.71,2.87-2.84,2.21-5.53-1.73-11-3.63-16.65-5-3.59-.87-5.26-2.56-5.64-6.27-1.37-13.53-5.82-26.18-11.69-38.35a97.91,97.91,0,0,0-18.64-27c-15.63-15.69-34.22-21-56-17-35.08,6.41-55.06,29-67,60.75C424.8,284.29,421.71,302.89,421.7,323Z" transform="translate(-321.62 -182.91)"/><path class="cls-1" d="M537.14,529.57c6.52-5.32,13-10.52,19.32-15.82a3.73,3.73,0,0,1,4.43-.76c17.44,7.32,35.66,10.69,54.48,8.8,27.21-2.72,46.68-17,58.32-41.65,8.83-18.67,6.78-37.38-.79-55.95-11.65-28.59-32.07-49.36-58.13-65a182.41,182.41,0,0,0-76.72-25.68c-8-.8-15.93-.5-23.89-.79-2.47-.09-3.8.9-5.09,3-6.57,10.75-17.76,15.76-28.69,13.1-13.17-3.2-21.12-12.28-22.25-25.39-.92-10.61,6.71-22.25,17.46-26.65a26.39,26.39,0,0,1,30.88,8.44c2.31,3,4.42,3.95,8.43,4,48.19.13,92.64,12.24,130.83,42.82,21.85,17.51,40,38.23,49.48,65.09,8.93,25.22,10.69,50.76-1.47,75.5-9.14,18.59-24.44,31.39-42.89,40.24-35.07,16.82-70.42,14.59-105.75.66C542.37,532.42,539.46,531.6,537.14,529.57Z" transform="translate(-321.62 -182.91)"/><path class="cls-1" d="M420.64,520.19c28.64.67,53.86-9.6,77.81-24.12,26.24-15.91,47.82-36.33,62.56-63.55,1.42-2.63,1.58-4.3-.43-7-7.55-10-7.23-22.87.29-32.79a27.11,27.11,0,0,1,30.83-8.92,27.47,27.47,0,0,1,18,26.66,27.15,27.15,0,0,1-20.05,25.1,9.24,9.24,0,0,0-6.21,5C554.66,495,509.79,528.06,449.78,540.8,420.57,547,392.2,545,365.55,530.63c-28.86-15.54-42.21-40.88-43.78-72.83-2.2-44.74,19.55-77.32,53.5-103.5,2-1.54,2.82-1.69,3.45,1.23,1.29,6,2.9,11.88,4.64,17.74.84,2.82.61,4.57-1.94,6.68-16.56,13.76-29.44,30.24-35.7,51.19-12.08,40.35,13.41,80.86,55,87.77A120.36,120.36,0,0,0,420.64,520.19Z" transform="translate(-321.62 -182.91)"/></svg>