<svg id="Layer_1" data-name="Layer 1" xmlns="http://www.w3.org/2000/svg" viewBox="0 0 232.32 232.06"><defs><style>.cls-1{fill:#2f7de2;}.cls-2{fill:#fdfdfe;}</style></defs><title>WebsiteIcon</title><path class="cls-1" d="M530.11,584.88h-13.2c-.21-.36-.56-.22-.86-.24A116.24,116.24,0,0,1,413.69,506a117.22,117.22,0,0,1-6-32.76V464.4a118.26,118.26,0,0,1,2.56-20.19c5.58-25,17.82-46.15,37.24-62.81,27.89-23.92,60.27-32.78,96.45-26.76,24.64,4.09,45.64,15.59,63.07,33.48a114.34,114.34,0,0,1,26.64,43.63,117.5,117.5,0,0,1,6,32.65v8.88a117.51,117.51,0,0,1-3.32,23.45,116.2,116.2,0,0,1-102.8,87.73A10.19,10.19,0,0,0,530.11,584.88Zm39.36-113.1q0-28.56,0-57.12c0-1.13-.33-1.37-1.4-1.37q-9,.07-18,0a1.48,1.48,0,0,0-1.75,1.25q-4.65,15.1-9.39,30.19c-5,15.73-9.9,31.45-14.16,47.39-.1.41,0,1.13-.66,1.09s-.46-.66-.57-1.06c-1.08-3.72-2.14-7.45-3.22-11.17-6.49-22.39-14-44.46-20.94-66.72a1.17,1.17,0,0,0-1.34-1c-6,0-12,0-18,0-1.8,0-1.68-.3-1.68,1.65v64.2q0,24.84,0,49.67c0,1,.18,1.37,1.29,1.35,4.68-.07,9.36-.06,14,0,.95,0,1.2-.25,1.19-1.19,0-7.08,0-14.16,0-21.24-.09-13.88.35-27.76-.32-41.63-.4-8.26-1.15-16.5-1.84-24.75,0-.54-.4-1.48.17-1.57s.56.91.71,1.43c7.54,25.84,16.16,51.33,24.35,77,.23.73.53,1.1,1.4,1.08,3-.07,5.92,0,8.88,0a1.11,1.11,0,0,0,1.26-.92c5.57-17.33,11.21-34.64,16.74-52,2.73-8.56,5.28-17.18,7.92-25.76.1-.33,0-1,.59-.84s.17.63.15.95q-.32,4.07-.65,8.13c-.69,8.49-1.48,17-1.52,25.49-.09,18.24,0,36.48-.05,54.72,0,.89.21,1.14,1.12,1.13,4.76,0,9.52-.06,14.28,0,1.12,0,1.45-.22,1.45-1.41Q569.44,500.28,569.47,471.78Z" transform="translate(-407.47 -352.81)"/><path class="cls-2" d="M407.65,473.28h-.18V464.4h.18Z" transform="translate(-407.47 -352.81)"/><path class="cls-2" d="M639.79,473.28h-.18V464.4h.18Z" transform="translate(-407.47 -352.81)"/><path class="cls-2" d="M569.47,471.78q0,28.5,0,57c0,1.19-.33,1.42-1.45,1.41-4.76-.07-9.52-.06-14.28,0-.91,0-1.12-.24-1.12-1.13,0-18.24,0-36.48.05-54.72,0-8.52.83-17,1.52-25.49q.33-4.06.65-8.13c0-.32.28-.85-.15-.95s-.49.51-.59.84c-2.64,8.58-5.19,17.2-7.92,25.76-5.53,17.34-11.17,34.65-16.74,52a1.11,1.11,0,0,1-1.26.92c-3,0-5.92-.06-8.88,0-.87,0-1.17-.35-1.4-1.08-8.19-25.63-16.81-51.12-24.35-77-.15-.52-.1-1.53-.71-1.43s-.21,1-.17,1.57c.69,8.25,1.44,16.49,1.84,24.75.67,13.87.23,27.75.32,41.63.05,7.08,0,14.16,0,21.24,0,.94-.24,1.2-1.19,1.19-4.68,0-9.36-.06-14,0-1.11,0-1.29-.34-1.29-1.35q0-24.83,0-49.67V415c0-2-.12-1.64,1.68-1.65,6,0,12,0,18,0a1.17,1.17,0,0,1,1.34,1c6.92,22.26,14.45,44.33,20.94,66.72,1.08,3.72,2.14,7.45,3.22,11.17.11.4,0,1,.57,1.06s.56-.68.66-1.09c4.26-15.94,9.21-31.66,14.16-47.39q4.74-15.09,9.39-30.19a1.48,1.48,0,0,1,1.75-1.25q9,.06,18,0c1.07,0,1.4.24,1.4,1.37Q569.44,443.22,569.47,471.78Z" transform="translate(-407.47 -352.81)"/><rect class="cls-1" x="554.65" y="399.86" width="13.11" height="63.54" transform="translate(-548.31 170.44) rotate(-45)"/></svg>